<?xml version="1.0" standalone="no"?>
<!DOCTYPE svg PUBLIC "-//W3C//DTD SVG 20010904//EN"
 "http://www.w3.org/TR/2001/REC-SVG-20010904/DTD/svg10.dtd">
<svg version="1.0" xmlns="http://www.w3.org/2000/svg"
 width="396.000000pt" height="320.000000pt" viewBox="0 0 876.000000 550.000000"
 preserveAspectRatio="xMidYMid meet">

<g transform="translate(0.000000,550.000000) scale(0.100000,-0.100000)"
fill="#000000" stroke="none">
<path d="M2580 4217 l0 -364 -227 -27 c-126 -15 -231 -31 -235 -35 -5 -4 144
-26 330 -50 185 -24 340 -46 344 -50 4 -3 -149 -24 -340 -45 -191 -21 -355
-42 -365 -45 -10 -4 147 -31 350 -60 336 -48 411 -61 357 -61 -11 0 -154 -14
-319 -30 -165 -17 -328 -34 -363 -37 -34 -3 -61 -8 -58 -10 2 -2 107 -19 232
-38 126 -19 244 -37 262 -40 32 -6 32 -6 32 -65 l0 -60 235 0 235 0 0 690 0
690 -235 0 -235 0 0 -363z"/>
<path d="M3102 3893 l3 -688 58 -3 57 -3 0 691 0 690 -60 0 -60 0 2 -687z"/>
<path d="M3272 3893 l3 -688 58 -3 57 -3 0 691 0 690 -60 0 -60 0 2 -687z"/>
<path d="M3442 3893 l3 -688 58 -3 57 -3 0 691 0 690 -60 0 -60 0 2 -687z"/>
<path d="M3612 3893 l3 -688 58 -3 57 -3 0 691 0 690 -60 0 -60 0 2 -687z"/>
<path d="M3782 3893 l3 -688 58 -3 57 -3 0 691 0 690 -60 0 -60 0 2 -687z"/>
<path d="M3952 3893 l3 -688 58 -3 57 -3 0 691 0 690 -60 0 -60 0 2 -687z"/>
<path d="M4122 3893 l3 -688 58 -3 57 -3 0 691 0 690 -60 0 -60 0 2 -687z"/>
<path d="M4292 3893 l3 -688 58 -3 57 -3 0 691 0 690 -60 0 -60 0 2 -687z"/>
<path d="M4462 3893 l3 -688 58 -3 57 -3 0 691 0 690 -60 0 -60 0 2 -687z"/>
<path d="M4632 3893 l3 -688 58 -3 57 -3 0 691 0 690 -60 0 -60 0 2 -687z"/>
<path d="M4802 3893 l3 -688 58 -3 57 -3 0 653 c0 359 3 670 6 691 l7 37 -67
0 -66 0 2 -687z"/>
<path d="M4973 3615 l2 -410 55 0 55 0 8 55 c13 85 1 312 -22 427 -12 56 -35
141 -53 190 -17 48 -34 102 -39 118 -4 17 -6 -154 -6 -380z"/>
<path d="M5082 3888 c3 -7 13 -37 22 -65 l18 -53 56 0 57 0 195 -187 c107
-102 197 -190 198 -195 2 -4 -100 -8 -226 -8 l-229 0 -7 -61 c-3 -34 -6 -75
-6 -90 l0 -29 335 0 335 0 0 88 0 88 -269 262 -269 262 -107 0 c-82 0 -106 -3
-103 -12z"/>
<path d="M2580 2955 l0 -185 270 0 269 0 11 39 c6 22 25 61 43 87 129 192 406
191 534 -1 19 -30 38 -69 42 -87 l7 -33 599 0 598 0 52 150 c29 83 56 165 60
183 l7 32 -1246 0 -1246 0 0 -185z"/>
<path d="M5141 3102 c-6 -21 -14 -52 -17 -70 l-6 -32 33 18 c53 27 189 23 256
-7 83 -37 182 -158 183 -223 0 -16 12 -18 120 -18 l120 0 0 185 0 185 -340 0
-339 0 -10 -38z"/>
<path d="M3356 2945 c-97 -34 -156 -119 -156 -225 1 -110 55 -191 156 -230
l49 -19 -320 0 -320 -1 -189 183 -189 182 79 -150 c43 -82 113 -215 155 -295
l76 -145 44 -2 c24 -2 791 49 1704 111 l1660 114 -400 1 -400 2 49 19 c123 48
187 172 152 291 -62 214 -344 241 -449 44 -28 -53 -29 -154 -2 -209 27 -57 76
-101 137 -125 l53 -20 -890 0 -890 -1 58 24 c69 29 91 47 124 103 111 189 -83
422 -291 348z m142 -125 c40 -25 66 -81 57 -126 -3 -20 -20 -45 -41 -63 -59
-52 -144 -38 -180 30 -31 60 -9 134 48 162 44 22 76 21 116 -3z m1849 -5 c29
-20 43 -53 43 -107 0 -32 -7 -47 -34 -74 -29 -29 -41 -34 -81 -34 -40 0 -52 5
-81 34 -33 33 -39 51 -34 106 6 82 111 124 187 75z"/>
<path d="M2328 1823 c-69 -26 -132 -83 -164 -149 -22 -45 -27 -70 -27 -128 0
-120 60 -213 172 -264 94 -43 236 -31 318 27 21 15 22 24 23 129 l0 112 -30 0
-30 0 0 -99 0 -99 -33 -15 c-51 -24 -109 -30 -168 -18 -112 24 -180 100 -187
207 -10 152 86 253 239 254 55 0 77 -5 122 -29 55 -29 56 -29 74 -9 17 19 17
20 -2 35 -55 41 -102 57 -180 60 -59 2 -93 -1 -127 -14z"/>
<path d="M4014 1817 c-85 -41 -117 -140 -69 -213 21 -32 73 -57 174 -85 135
-37 175 -77 145 -148 -17 -40 -64 -61 -139 -61 -58 0 -145 27 -176 56 -17 16
-19 15 -30 -10 -11 -24 -10 -28 11 -44 77 -55 221 -72 308 -37 78 32 116 106
92 179 -16 50 -60 83 -143 107 -149 43 -168 51 -184 75 -25 39 -19 85 15 115
51 45 150 49 236 8 22 -10 41 -18 42 -16 1 1 5 14 9 28 6 24 2 28 -37 44 -24
10 -78 20 -123 22 -69 3 -87 1 -131 -20z"/>
<path d="M5757 1826 c-128 -47 -197 -148 -197 -285 0 -114 68 -215 179 -264
82 -36 215 -25 299 25 l32 20 0 114 0 114 -30 0 -30 0 0 -101 0 -100 -37 -17
c-49 -21 -165 -21 -214 1 -182 80 -183 342 -2 427 39 18 60 21 123 18 64 -2
84 -8 119 -31 40 -27 45 -28 60 -13 22 22 6 45 -54 75 -58 31 -188 39 -248 17z"/>
<path d="M3360 1740 l0 -50 -41 0 c-36 0 -40 -2 -37 -22 2 -19 10 -24 41 -26
l37 -3 0 -140 c0 -152 10 -196 52 -222 38 -25 120 -26 151 -3 15 12 17 18 7
35 -9 17 -15 19 -30 11 -31 -17 -75 -12 -96 11 -16 18 -19 40 -22 165 l-4 143
69 3 c61 3 68 5 71 25 3 21 -1 22 -65 25 l-68 3 -3 48 c-3 45 -5 47 -33 47
-28 0 -29 -1 -29 -50z"/>
<path d="M5010 1740 l0 -50 -40 0 c-36 0 -40 -2 -40 -25 0 -22 4 -25 40 -25
l40 0 0 -147 c0 -158 6 -182 51 -215 30 -22 95 -26 139 -8 34 14 34 14 20 41
-9 15 -15 17 -30 9 -22 -12 -70 -13 -86 -2 -27 18 -34 56 -34 186 l0 136 65 0
c63 0 65 1 65 25 0 24 -2 25 -65 25 l-65 0 0 50 c0 49 -1 50 -30 50 -29 0 -30
-1 -30 -50z"/>
<path d="M2955 1691 c-162 -40 -221 -244 -107 -364 79 -84 243 -95 312 -22 22
23 23 27 8 41 -15 15 -19 15 -50 -7 -45 -33 -152 -34 -194 -3 -36 26 -61 62
-70 97 l-6 27 181 0 181 0 0 38 c-1 88 -71 172 -160 191 -56 12 -52 12 -95 2z
m130 -71 c32 -20 65 -72 65 -104 0 -14 -19 -16 -151 -16 l-151 0 7 28 c24 97
144 145 230 92z"/>
<path d="M4580 1685 c-88 -28 -142 -106 -142 -205 0 -134 86 -221 220 -221 62
-1 136 24 159 53 10 12 10 19 -2 34 -12 16 -17 17 -32 6 -65 -46 -132 -53
-200 -22 -45 20 -83 69 -83 108 l0 22 181 0 182 0 -7 43 c-22 141 -147 223
-276 182z m147 -65 c36 -22 58 -52 68 -92 l7 -28 -151 0 c-138 0 -151 2 -151
18 0 29 33 81 65 102 40 27 119 27 162 0z"/>
<path d="M6367 1686 c-75 -21 -119 -66 -143 -145 -44 -147 55 -282 208 -282
77 -1 141 31 183 90 28 39 30 50 30 126 0 77 -2 87 -30 127 -55 77 -152 111
-248 84z m137 -60 c77 -32 111 -153 66 -234 -32 -56 -88 -86 -152 -80 -88 9
-139 68 -140 162 -1 126 110 201 226 152z"/>
</g>
</svg>
